<?xml version="1.0" encoding="UTF-8"?>
<svg id="_レイヤー_2" data-name="レイヤー 2" xmlns="http://www.w3.org/2000/svg" viewBox="0 0 284.47 83.57">
  <defs>
    <style>
      .cls-1 {
        fill: #000;
        stroke-width: 0px;
      }
    </style>
  </defs>
  <g id="_レイヤー_1-2" data-name="レイヤー 1">
    <g>
      <g>
        <path class="cls-1" d="M21.97,50.1h-5.89v33.47H0V3.41h16.08v32.76h4.51L42.56,3.41h19.88l-27.75,37.27,29.9,42.89h-20.48l-22.13-33.47Z"/>
        <path class="cls-1" d="M107.07,83.57h-16.08V3.41h16.08v80.16Z"/>
        <path class="cls-1" d="M205.82,83.57h-16.08l-32.32-54.06-.33.06v54.01h-16.08V3.41h16.08l32.32,54.01.33-.06V3.41h16.08v80.16Z"/>
        <path class="cls-1" d="M271.35,49.28c0-2.52-.88-4.54-2.63-6.06s-4.83-2.96-9.23-4.31c-7.55-2.28-13.27-4.96-17.18-8.04-3.91-3.08-5.86-7.29-5.86-12.62s2.2-9.74,6.6-13.14c4.4-3.4,10.02-5.1,16.85-5.1,7.25,0,13.08,1.83,17.5,5.48,4.42,3.65,6.55,8.45,6.4,14.38l-.09.27h-12.71c0-3.26-.99-5.77-2.96-7.52s-4.75-2.63-8.31-2.63c-3.23,0-5.74.78-7.5,2.34-1.77,1.56-2.65,3.55-2.65,5.97,0,2.22.96,4.04,2.88,5.46,1.92,1.42,5.23,2.93,9.93,4.51,7.19,2.04,12.67,4.69,16.44,7.97s5.66,7.6,5.66,12.96-2.19,10.02-6.56,13.25c-4.37,3.23-10.15,4.85-17.34,4.85s-13.08-1.75-18.13-5.26c-5.05-3.5-7.5-8.73-7.34-15.68l.09-.27h12.71c0,3.86,1.14,6.71,3.41,8.54,2.28,1.83,5.36,2.74,9.25,2.74,3.5,0,6.18-.73,8.02-2.2,1.84-1.47,2.76-3.43,2.76-5.88Z"/>
      </g>
      <rect class="cls-1" x="243.62" y="73.18" width="33" height="10"/>
    </g>
  </g>
</svg>